<svg xmlns="http://www.w3.org/2000/svg" width="348.498" height="177.743" viewBox="0 0 348.498 177.743">
  <g id="Grupo_41" data-name="Grupo 41" transform="translate(-229.185 -373.2)">
    <g id="Grupo_9" data-name="Grupo 9" transform="translate(229.185 518.609)">
      <path id="Trazado_69" data-name="Trazado 69" d="M257.2,637.135l-9.232,24.113c-.23.551-.459.827-.781.827q-.552,0-.827-.827L237.5,637.824l-3.123,18.234a16.7,16.7,0,0,0-.276,2.434c0,1.286.551,1.883,1.975,2.3.5.138.735.321.735.644q0,.688-1.516.689h-5.236c-.6,0-.872-.23-.872-.689,0-.506.046-.46,1.515-.781,1.149-.229,1.608-1.1,2.159-4.639l3.215-19.06a15.051,15.051,0,0,0,.321-2.343,1.739,1.739,0,0,0-1.194-1.745c-.6-.229-.872-.459-.872-.735,0-.414.459-.644,1.377-.644H242c.689,0,1.057.184,1.057.6q0,.551-.69.689c-.964.183-1.332.459-1.332,1.194a12.388,12.388,0,0,0,.827,2.526L248.843,655l7.3-19.244a5.052,5.052,0,0,0,.459-1.791c0-.551-.322-.918-.964-1.148-.735-.229-.872-.275-.872-.643,0-.459.459-.689,1.423-.689h6.247c.643,0,.965.184.965.6,0,.275-.229.46-.689.6-1.056.321-1.378.735-1.378,1.7a18.112,18.112,0,0,0,.322,2.434l3.169,19.979a17.877,17.877,0,0,0,.688,3.077,1.83,1.83,0,0,0,1.241.872c.6.138.872.367.872.689,0,.459-.505.689-1.47.689h-6.8q-1.1,0-1.1-.689c0-.368.184-.46.964-.689a1.6,1.6,0,0,0,1.286-1.607,12.023,12.023,0,0,0-.138-1.7Z" transform="translate(-229.185 -630.568)" fill="#edc690"/>
      <path id="Trazado_70" data-name="Trazado 70" d="M310.831,657.009c0,1.379.138,2.2.459,2.526a2.733,2.733,0,0,0,1.837.413h7.211a14.061,14.061,0,0,0,6.613-1.424,13.63,13.63,0,0,0,3.95-3.536c.367-.414.689-.644.918-.644.414,0,.6.184.6.552a3.006,3.006,0,0,1-.505,1.148l-2.939,5.236c-.322.6-.735.918-1.148.918a1.53,1.53,0,0,1-.735-.367,2.109,2.109,0,0,0-1.424-.413H305.32c-.872,0-1.332-.23-1.332-.689,0-.368.046-.414,1.148-.781a1.256,1.256,0,0,0,.872-.781,10.184,10.184,0,0,0,.184-2.618V635.7a9.315,9.315,0,0,0-.229-2.71,2.218,2.218,0,0,0-1.424-.873c-.368-.138-.551-.321-.551-.6,0-.505.459-.735,1.332-.735h15.523c1.47,0,2.3,0,2.526-.046s.459-.275.781-.6a1.125,1.125,0,0,1,.735-.276c.367,0,.735.368,1.148,1.056l2.388,4.134a2.674,2.674,0,0,1,.368.873.57.57,0,0,1-.551.6c-.229,0-.643-.367-1.241-1.056a7.929,7.929,0,0,0-3.766-2.572,20.467,20.467,0,0,0-6.384-.781c-2.159,0-3.536.046-4.087.092a3.549,3.549,0,0,0-1.241.275,1.528,1.528,0,0,0-.689,1.515v5.7a3.678,3.678,0,0,0,.414,2.251,3.6,3.6,0,0,0,2.2.413h2.434c1.516,0,1.7-.046,2.021-.827a1.073,1.073,0,0,1,.873-.643c.413,0,.735.23,1.056.735l2.618,4.409a1.114,1.114,0,0,1,.184.6.591.591,0,0,1-.551.551c-.184,0-.643-.322-1.332-1.01-1.883-1.838-3.766-2.48-7.394-2.48-2.158,0-2.526.321-2.526,1.837Z" transform="translate(-261.61 -629.865)" fill="#edc690"/>
      <path id="Trazado_71" data-name="Trazado 71" d="M362.857,635.436v21.77c0,2.2.413,2.985,1.837,3.536.5.184.735.413.735.689,0,.551-.322.689-1.286.689h-4.685c-.505,0-.781-.184-.781-.6,0-.322.229-.6.735-.736,1.515-.505,1.837-1.1,1.837-3.536V636.4a9.28,9.28,0,0,0-.231-2.71c-.138-.321-.642-.643-1.423-.918-.414-.092-.6-.275-.6-.6q0-.689,1.378-.689h4.961L383.617,653.3V636.355a6.991,6.991,0,0,0-.321-2.756,1.873,1.873,0,0,0-1.515-.872c-.506-.092-.735-.276-.735-.6,0-.414.368-.644,1.1-.644h4.363c.872,0,1.332.23,1.332.644,0,.229-.184.414-.6.505a3.73,3.73,0,0,0-1.561.735c-.368.413-.505.964-.505,2.985V660.7c0,1.1-.138,1.378-.827,1.378-.551,0-.643-.138-.781-1.286-.046-.735-.092-.735-1.056-1.974Z" transform="translate(-285.316 -630.568)" fill="#edc690"/>
      <path id="Trazado_72" data-name="Trazado 72" d="M423.492,652.935c-1.837,0-2.251.229-2.756,1.515l-1.057,2.8a6.059,6.059,0,0,0-.5,1.883,1.48,1.48,0,0,0,.6,1.24,3.352,3.352,0,0,0,1.332.413c.46.092.69.321.69.644,0,.459-.46.689-1.333.689H414.72c-.551,0-.827-.23-.827-.643s.046-.506,1.561-1.011c.965-.368,1.884-1.516,2.664-3.445l9.6-24.021c.413-1.148.827-1.516,1.883-1.516h.827c.918,0,1.148.276,1.883,1.975l9.232,22.276a19.773,19.773,0,0,0,1.654,3.582,4.8,4.8,0,0,0,2.159,1.424c.5.229.781.459.781.689q0,.688-.965.689h-8.313c-.781,0-1.149-.23-1.149-.643,0-.322.23-.552.644-.69,1.1-.229,1.561-.6,1.561-1.469a3.118,3.118,0,0,0-.322-1.148l-1.378-3.4a3.372,3.372,0,0,0-.918-1.561,4.171,4.171,0,0,0-1.929-.275Zm4.776-17.453-5.741,14.467a2.84,2.84,0,0,0-.23.827c0,.6.276.735,1.561.735h8.91c1.148,0,1.7-.229,1.7-.735a3.476,3.476,0,0,0-.322-1.1Z" transform="translate(-309.25 -630.568)" fill="#edc690"/>
      <path id="Trazado_73" data-name="Trazado 73" d="M484.446,656.866a9.734,9.734,0,0,0,.229,2.756c.138.321.643.6,1.47.827.367.138.551.321.551.6q0,.688-1.378.689h-6.43c-.872,0-1.331-.23-1.331-.689,0-.368.046-.46,1.148-.781a1.255,1.255,0,0,0,.872-.781,10.185,10.185,0,0,0,.184-2.618v-20.76a6.46,6.46,0,0,0-.367-2.71c-.322-.413-.322-.459-1.607-1.01a.507.507,0,0,1-.229-.459c0-.414.413-.69,1.194-.781a71.389,71.389,0,0,1,8.589-.551c5.19,0,9.323.827,12.447,2.48a11.586,11.586,0,0,1,4.593,4.455,8.1,8.1,0,0,1,1.148,4.317,7.434,7.434,0,0,1-1.378,4.455c-1.1,1.516-3.261,2.848-6.522,4l6.293,7.716a6.64,6.64,0,0,0,3.031,2.3c.505.138.781.413.781.781,0,.413-.413.643-1.194.643h-7.946c-.781,0-1.148-.23-1.148-.643,0-.23.138-.414.46-.6.918-.551,1.01-.6,1.01-1.01a3.023,3.023,0,0,0-.781-1.47l-5.282-6.751a24.314,24.314,0,0,1-3.031.184,41.449,41.449,0,0,1-5.374-.413Zm0-10.426a4.545,4.545,0,0,0,.5,2.664c.551.6,2.067.873,4.5.873,3.812,0,6.659-.873,8.589-2.664a8.19,8.19,0,0,0,2.342-5.787,8.44,8.44,0,0,0-1.561-4.915,10,10,0,0,0-5.236-3.858,17.009,17.009,0,0,0-5.558-.918c-1.7,0-2.756.229-3.169.643a3.962,3.962,0,0,0-.413,2.3Z" transform="translate(-336.846 -630.181)" fill="#edc690"/>
      <path id="Trazado_74" data-name="Trazado 74" d="M539.122,661.805c-.873,0-1.331-.23-1.331-.689,0-.368.046-.414,1.148-.781a1.254,1.254,0,0,0,.872-.781,10.174,10.174,0,0,0,.184-2.618V635.855a9.246,9.246,0,0,0-.184-2.618c-.138-.276-.551-.505-1.331-.689-.46-.138-.689-.321-.689-.643,0-.505.551-.735,1.7-.781.321-.046,1.011-.092,1.975-.138,1.837-.138,3.444-.229,4.777-.229a22.992,22.992,0,0,1,9.415,1.7,16.7,16.7,0,0,1,8.5,7.945,17.367,17.367,0,0,1,1.745,7.762,13.472,13.472,0,0,1-3.582,9.737,11.1,11.1,0,0,1-5.787,3.262,28.473,28.473,0,0,1-6.154.643Zm5.512-5.006a4.942,4.942,0,0,0,.459,2.71c.459.6,1.837.872,4.133.872,3.9,0,6.844-1.194,8.819-3.536q2.617-3.17,2.617-8.543a18.775,18.775,0,0,0-1.974-8.5,13.387,13.387,0,0,0-6.982-6.8,11.554,11.554,0,0,0-4.363-.872c-2.067,0-2.71.643-2.71,2.894Z" transform="translate(-362.956 -630.252)" fill="#edc690"/>
      <path id="Trazado_75" data-name="Trazado 75" d="M632.512,657.077a10.965,10.965,0,0,0,.275,2.756c.23.413.368.459,1.7.872.414.092.6.275.6.552q0,.688-1.379.689H627c-.872,0-1.331-.23-1.331-.689,0-.368.046-.46,1.148-.781a1.253,1.253,0,0,0,.872-.781,10.179,10.179,0,0,0,.184-2.618v-20.9a8.97,8.97,0,0,0-.229-2.618c-.138-.321-.689-.643-1.653-1.056a.412.412,0,0,1-.321-.459.592.592,0,0,1,.5-.6,14.931,14.931,0,0,1,2.894-.229q2.548-.138,4.684-.138c5.006,0,8.956.827,11.85,2.434a11.337,11.337,0,0,1,4.731,5.465,10.555,10.555,0,0,1,.873,4.225,8.8,8.8,0,0,1-2.02,5.787c-2.2,2.618-5.833,3.9-10.931,3.9a41.685,41.685,0,0,1-5.741-.414Zm0-9.232a5.655,5.655,0,0,0,.367,2.618c.505.6,2.251,1.056,4.226,1.056a9.511,9.511,0,0,0,5.879-1.745,7.7,7.7,0,0,0,1.929-2.113,8.583,8.583,0,0,0,1.194-4.41,11.4,11.4,0,0,0-1.654-5.878,9.657,9.657,0,0,0-4.915-4.134,10.482,10.482,0,0,0-4.088-.827c-2.342,0-2.939.6-2.939,2.848Z" transform="translate(-401.048 -630.392)" fill="#edc690"/>
      <path id="Trazado_76" data-name="Trazado 76" d="M701.062,632.718a17.376,17.376,0,0,1,8.176,14.559,14.9,14.9,0,0,1-2.021,7.349,14.339,14.339,0,0,1-7.44,6.477,17.031,17.031,0,0,1-6.292,1.194,15.726,15.726,0,0,1-9.508-2.985,14.806,14.806,0,0,1-4.409-5.1,14.621,14.621,0,0,1-1.7-6.935,16.806,16.806,0,0,1,2.664-9,16.469,16.469,0,0,1,7.028-6.384,13.678,13.678,0,0,1,5.971-1.378A14.3,14.3,0,0,1,701.062,632.718Zm-13.456,1.561a13.668,13.668,0,0,0-3.813,6.981,24.946,24.946,0,0,0-.689,5.925c0,4.547,1.1,8.084,3.261,10.609a9.182,9.182,0,0,0,7.349,3.077,8.783,8.783,0,0,0,7.946-4.133A16.47,16.47,0,0,0,704,647.691a21.655,21.655,0,0,0-2.71-11.3,9.127,9.127,0,0,0-3.629-3.491,8.18,8.18,0,0,0-4.087-1.01A8.516,8.516,0,0,0,687.606,634.28Z" transform="translate(-423.675 -630.146)" fill="#edc690"/>
      <path id="Trazado_77" data-name="Trazado 77" d="M747.641,657.39a4.41,4.41,0,0,0,.5,2.526c.505.551,1.195.735,3.261.735h3.169c3.72.138,6.981-1.515,9.829-4.96a.876.876,0,0,1,.551-.322c.413,0,.6.184.6.551a1.37,1.37,0,0,1-.229.643l-2.986,5.282c-.367.643-.689.964-1.01.964a2.108,2.108,0,0,1-.735-.275,3.449,3.449,0,0,0-1.7-.413H742.175c-.872,0-1.331-.23-1.331-.689,0-.368.046-.46,1.148-.781a1.254,1.254,0,0,0,.872-.781,10.19,10.19,0,0,0,.184-2.618V636.4a9.315,9.315,0,0,0-.229-2.71c-.138-.321-.643-.643-1.424-.918-.367-.092-.551-.275-.551-.6,0-.459.459-.689,1.331-.689h6.981c.874,0,1.332.23,1.332.689,0,.414-.183.6-1.286.781-.689.138-1.148.367-1.286.735a10.813,10.813,0,0,0-.275,2.71Z" transform="translate(-450.973 -630.568)" fill="#edc690"/>
      <path id="Trazado_78" data-name="Trazado 78" d="M812.151,632.718a17.376,17.376,0,0,1,8.176,14.559,14.9,14.9,0,0,1-2.021,7.349,14.339,14.339,0,0,1-7.44,6.477,17.035,17.035,0,0,1-6.293,1.194,15.725,15.725,0,0,1-9.507-2.985,14.8,14.8,0,0,1-4.409-5.1,14.621,14.621,0,0,1-1.7-6.935,16.807,16.807,0,0,1,2.664-9,16.471,16.471,0,0,1,7.027-6.384,13.681,13.681,0,0,1,5.971-1.378A14.307,14.307,0,0,1,812.151,632.718Zm-13.457,1.561a13.671,13.671,0,0,0-3.812,6.981,24.915,24.915,0,0,0-.689,5.925c0,4.547,1.1,8.084,3.261,10.609a9.182,9.182,0,0,0,7.349,3.077,8.783,8.783,0,0,0,7.946-4.133,16.471,16.471,0,0,0,2.342-9.048,21.655,21.655,0,0,0-2.71-11.3,9.128,9.128,0,0,0-3.629-3.491,8.182,8.182,0,0,0-4.088-1.01A8.519,8.519,0,0,0,798.694,634.28Z" transform="translate(-471.828 -630.146)" fill="#edc690"/>
    </g>
    <g id="Grupo_11" data-name="Grupo 11" transform="translate(333.712 373.2)">
      <path id="Trazado_80" data-name="Trazado 80" d="M551.36,447.8a.282.282,0,0,1-.283-.283v-6.751H487.255v6.751a.283.283,0,0,1-.566,0v-7.035a.283.283,0,0,1,.283-.283H551.36a.283.283,0,0,1,.283.283v7.035A.283.283,0,0,1,551.36,447.8Z" transform="translate(-445.332 -402.24)" fill="#edc690"/>
      <path id="Trazado_81" data-name="Trazado 81" d="M519.167,553.916a1.266,1.266,0,0,1-.9-.372l-30.682-30.681a3.039,3.039,0,0,1-.9-2.161V499.265a.283.283,0,0,1,.566,0V520.7a2.474,2.474,0,0,0,.729,1.76l30.682,30.681a.708.708,0,0,0,1,0l30.682-30.681a2.474,2.474,0,0,0,.729-1.76V499.265a.283.283,0,0,1,.566,0V520.7a3.038,3.038,0,0,1-.9,2.161l-30.682,30.681A1.266,1.266,0,0,1,519.167,553.916Z" transform="translate(-445.332 -427.722)" fill="#edc690"/>
      <g id="Grupo_10" data-name="Grupo 10" transform="translate(46.551 51.009)">
        <path id="Trazado_82" data-name="Trazado 82" d="M534.872,471.105l-12.856,33.58c-.319.768-.64,1.152-1.087,1.152q-.767,0-1.151-1.152l-12.345-32.62-4.349,25.393a23.374,23.374,0,0,0-.384,3.39c0,1.791.768,2.622,2.751,3.2.7.191,1.023.448,1.023.9q0,.959-2.111.959h-7.291c-.832,0-1.216-.319-1.216-.959,0-.7.065-.64,2.111-1.087,1.6-.32,2.239-1.535,3.007-6.461l4.477-26.544a20.976,20.976,0,0,0,.448-3.262,2.423,2.423,0,0,0-1.663-2.431c-.831-.319-1.215-.64-1.215-1.024,0-.575.64-.9,1.919-.9H513.7c.96,0,1.471.255,1.471.832q0,.767-.959.959c-1.343.256-1.855.64-1.855,1.663a17.263,17.263,0,0,0,1.151,3.518l9.723,25.777,10.17-26.8a7.047,7.047,0,0,0,.64-2.494c0-.768-.448-1.279-1.343-1.6-1.024-.32-1.215-.384-1.215-.9,0-.64.64-.96,1.982-.96h8.7c.9,0,1.343.255,1.343.832,0,.384-.32.64-.96.832-1.471.448-1.918,1.023-1.918,2.366a25.054,25.054,0,0,0,.448,3.39l4.413,27.823a24.874,24.874,0,0,0,.959,4.285,2.549,2.549,0,0,0,1.727,1.215c.832.192,1.215.512,1.215.96,0,.64-.7.959-2.046.959h-9.466q-1.536,0-1.535-.959c0-.512.255-.64,1.343-.96a2.229,2.229,0,0,0,1.791-2.239,16.823,16.823,0,0,0-.191-2.367Z" transform="translate(-495.856 -463.238)" fill="#edc690"/>
      </g>
      <path id="Trazado_83" data-name="Trazado 83" d="M550.761,451.517a.283.283,0,0,1-.283-.283v-5.971h-58.72v5.971a.283.283,0,1,1-.567,0v-6.255a.283.283,0,0,1,.283-.283h59.287a.283.283,0,0,1,.283.283v6.255A.283.283,0,0,1,550.761,451.517Z" transform="translate(-447.283 -404.191)" fill="#edc690"/>
      <path id="Trazado_84" data-name="Trazado 84" d="M521.118,548.791a1.264,1.264,0,0,1-.9-.373l-28.132-28.131a3.04,3.04,0,0,1-.895-2.161V495.072a.283.283,0,1,1,.567,0v23.054a2.475,2.475,0,0,0,.729,1.76l28.132,28.131a.725.725,0,0,0,1,0l28.132-28.131a2.475,2.475,0,0,0,.729-1.76V495.072a.283.283,0,1,1,.567,0v23.054a3.036,3.036,0,0,1-.895,2.161l-28.132,28.131A1.263,1.263,0,0,1,521.118,548.791Z" transform="translate(-447.283 -425.905)" fill="#edc690"/>
      <path id="Trazado_85" data-name="Trazado 85" d="M637.09,489.722c-2.19-2.108-1.522-5.782-1.387-6.46.115.15.23.31.341.482a7.88,7.88,0,0,1,.963,2.106,16.169,16.169,0,0,0-1.475-6.275,12.592,12.592,0,0,0-4.568-5.672,11.056,11.056,0,0,0-1.519-.818,10.436,10.436,0,0,0-.34-3,9.844,9.844,0,0,0-.846-1.957,8.409,8.409,0,0,0-.832-1.162l-7.207-7.942a3.463,3.463,0,0,1-.84-1.7l-.923-5.01-.628-4.623a3.44,3.44,0,0,1,.07-1.293l1.262-5.079a3.81,3.81,0,0,0,.111-1.015l-.17-6.675a1.767,1.767,0,0,0-.051-.384,26.164,26.164,0,0,0-3.275-7.671,1.156,1.156,0,0,1-.178-.708l.255-3.42-.019-.2s-1.41,1.628-2.1,2.42l-.158.182-.027.008V423.7c0-.632.007-2.051.007-2.051l-.012-.19s-.732.828-1.153,1.305a.87.87,0,0,1-.581.291l-.578.048a4.112,4.112,0,0,0-.84.159l-.684.206a4.621,4.621,0,0,0-1.447.73l-6.915,5.187a1.3,1.3,0,0,0-.426.532,3.591,3.591,0,0,0-.2,2.132.36.36,0,0,0,.089.174,4.266,4.266,0,0,0,.456.432,4.215,4.215,0,0,0,.506.353,1.249,1.249,0,0,0,.411.155l.729.134a1.517,1.517,0,0,0,.966-.142l.591-.3a2.426,2.426,0,0,1,1.051-.267l4.042-.1a2.648,2.648,0,0,1,.687.2l.007,0a1.11,1.11,0,0,1,.658.946c0,.044,0,.09.006.136,0,.027,0,.052,0,.078a1.617,1.617,0,0,1-.361,1l-4.8,6a.7.7,0,0,1-.5.262l-.432.028a1.348,1.348,0,0,0-.706.258l-.366.268-1.964,1.44a.783.783,0,0,0-.292.423,26.626,26.626,0,0,1-.719,2.576,3.7,3.7,0,0,1-.565.151l-4.446-3.132a1.1,1.1,0,0,0-1.113-.093l-1.143.548a1.924,1.924,0,0,0-1.089,1.626l-.058,1.041a3.461,3.461,0,0,1-.2.973l-1.531,4.281a2.517,2.517,0,0,0-.147.847v.623a2.848,2.848,0,0,0,.405,1.464l3.213,5.355.528-.075,1.9,1.846a.753.753,0,0,0,1.248-.325l.56-1.879a.924.924,0,0,0-.172-.85l-2.081-2.531a1.741,1.741,0,0,1-.4-1.106v-2.243a1.38,1.38,0,0,1,.438-1.01l.757-.7a.724.724,0,0,1,.952-.031l.324.265a.285.285,0,0,0,.033.024l2.478,1.63a1.357,1.357,0,0,1,.525.658l1.8,4.8a4.336,4.336,0,0,0,.182.417l2.846,5.694a4.266,4.266,0,0,0,.528.81l6.107,7.383a1.29,1.29,0,0,1,.24,1.2l-.7,2.3a2.8,2.8,0,0,0-.1.495l-.157,1.395a2.25,2.25,0,0,0,.247,1.3l2.075,3.926a8.956,8.956,0,0,0,.908,1.39l3.782,4.764a2.909,2.909,0,0,1,.631,1.827l-.028,4.5a2.524,2.524,0,0,1-.367,1.3l-5.894,9.693v.539h3.759a.519.519,0,0,0,.519-.5.512.512,0,0,1,.511-.492h1.383a.711.711,0,0,0,.711-.726l-.01-.483a1.388,1.388,0,0,1,.419-1.021l.584-.569a1.535,1.535,0,0,0,.464-1.078l.057-4.114A2.947,2.947,0,0,1,622,496.9l1.6-3.162a3.192,3.192,0,0,0,.292-.874l.426-2.38a2.3,2.3,0,0,0-.2-1.419l-.576-1.17a2.326,2.326,0,0,1-.237-.957l-.041-1.464a2.213,2.213,0,0,1,.375-1.3l2.514-3.757a16.977,16.977,0,0,0,2.915-5.241,5.417,5.417,0,0,1,1.793,1.333c1.9,2.189,1.9,5.952-.253,9.132a6.616,6.616,0,0,0,1.478-1.569,17.147,17.147,0,0,0,.877-1.688,13.172,13.172,0,0,0-.684,4,5.942,5.942,0,0,0,.1,1.212c.423,2.045,1.525,2.211,1.832,4.229a8.589,8.589,0,0,1-.736,4.4,6.557,6.557,0,0,0,1.393-4.715c-.126-1.236-.588-1.832-.517-3.316a7.145,7.145,0,0,1,.563-2.435A4.644,4.644,0,0,0,638,490.4,4.549,4.549,0,0,1,637.09,489.722ZM593.706,454.6h-.285l-.432-.293a.4.4,0,0,1-.173-.344l.118-2.792a.4.4,0,0,1,.06-.193l.713-1.141Z" transform="translate(-490.326 -394.027)" fill="#edc690" fill-rule="evenodd"/>
      <path id="Trazado_86" data-name="Trazado 86" d="M413.688,490.4a4.644,4.644,0,0,0,3.085-4.628,7.15,7.15,0,0,1,.563,2.435c.071,1.484-.39,2.08-.517,3.316a6.558,6.558,0,0,0,1.393,4.715,8.588,8.588,0,0,1-.736-4.4c.307-2.018,1.409-2.184,1.832-4.229a5.9,5.9,0,0,0,.1-1.212,13.17,13.17,0,0,0-.684-4,17.1,17.1,0,0,0,.878,1.688,6.6,6.6,0,0,0,1.478,1.569c-2.156-3.181-2.157-6.944-.253-9.132a5.417,5.417,0,0,1,1.793-1.333,16.971,16.971,0,0,0,2.915,5.241l2.514,3.757a2.214,2.214,0,0,1,.375,1.3l-.041,1.464a2.315,2.315,0,0,1-.237.957l-.576,1.17a2.3,2.3,0,0,0-.2,1.419l.426,2.38a3.2,3.2,0,0,0,.292.874l1.6,3.162a2.946,2.946,0,0,1,.316,1.285l.057,4.114a1.535,1.535,0,0,0,.464,1.078l.584.569a1.386,1.386,0,0,1,.419,1.021l-.01.483a.711.711,0,0,0,.71.726H433.6a.511.511,0,0,1,.511.492.52.52,0,0,0,.519.5h3.759v-.539l-5.894-9.693a2.527,2.527,0,0,1-.367-1.3l-.028-4.5a2.909,2.909,0,0,1,.631-1.827l3.782-4.764a8.964,8.964,0,0,0,.908-1.39l2.075-3.926a2.249,2.249,0,0,0,.246-1.3l-.158-1.395a2.726,2.726,0,0,0-.1-.495l-.7-2.3a1.29,1.29,0,0,1,.24-1.2l6.107-7.383a4.26,4.26,0,0,0,.527-.81l2.847-5.694a4.427,4.427,0,0,0,.181-.417l1.8-4.8a1.357,1.357,0,0,1,.525-.658l2.477-1.63a.334.334,0,0,0,.033-.024l.323-.265a.724.724,0,0,1,.952.031l.757.7a1.381,1.381,0,0,1,.439,1.01v2.243a1.742,1.742,0,0,1-.4,1.106l-2.081,2.531a.923.923,0,0,0-.172.85l.56,1.879a.753.753,0,0,0,1.247.325l1.9-1.846.527.075,3.213-5.355a2.847,2.847,0,0,0,.405-1.464v-.623a2.516,2.516,0,0,0-.147-.847l-1.531-4.281a3.461,3.461,0,0,1-.2-.973l-.058-1.041a1.924,1.924,0,0,0-1.089-1.626l-1.143-.548a1.1,1.1,0,0,0-1.113.093l-4.446,3.132a3.7,3.7,0,0,1-.565-.151,26.606,26.606,0,0,1-.718-2.576.784.784,0,0,0-.292-.423l-1.964-1.44-.366-.268a1.347,1.347,0,0,0-.706-.258l-.432-.028a.7.7,0,0,1-.5-.262l-4.8-6a1.622,1.622,0,0,1-.361-1c0-.026,0-.051,0-.078,0-.046,0-.092.006-.136a1.11,1.11,0,0,1,.658-.946l.007,0a2.648,2.648,0,0,1,.687-.2l4.042.1a2.427,2.427,0,0,1,1.051.267l.591.3a1.518,1.518,0,0,0,.966.142l.729-.134a1.244,1.244,0,0,0,.411-.155,4.2,4.2,0,0,0,.962-.785.359.359,0,0,0,.089-.174,3.588,3.588,0,0,0-.2-2.132,1.3,1.3,0,0,0-.426-.532l-6.915-5.187a4.621,4.621,0,0,0-1.447-.73l-.684-.206a4.114,4.114,0,0,0-.84-.159l-.578-.048a.87.87,0,0,1-.581-.291c-.421-.478-1.153-1.305-1.153-1.305l-.012.19s.006,1.419.007,2.051v.153l-.027-.008-.158-.182c-.69-.792-2.1-2.42-2.1-2.42l-.019.2.255,3.42a1.156,1.156,0,0,1-.178.708,26.168,26.168,0,0,0-3.275,7.671,1.794,1.794,0,0,0-.051.384l-.17,6.675a3.827,3.827,0,0,0,.111,1.015l1.262,5.079a3.443,3.443,0,0,1,.07,1.293l-.627,4.623-.924,5.01a3.465,3.465,0,0,1-.84,1.7l-7.207,7.942a8.419,8.419,0,0,0-.832,1.162,9.848,9.848,0,0,0-.846,1.957,10.426,10.426,0,0,0-.339,3,11.06,11.06,0,0,0-1.519.818,12.593,12.593,0,0,0-4.568,5.672,16.171,16.171,0,0,0-1.475,6.275,7.874,7.874,0,0,1,.963-2.106c.112-.171.226-.331.341-.482.135.678.8,4.352-1.387,6.46A4.555,4.555,0,0,1,413.688,490.4Zm44.289-40.561.713,1.141a.4.4,0,0,1,.06.193l.118,2.792a.4.4,0,0,1-.173.344l-.432.293h-.286Z" transform="translate(-413.688 -394.027)" fill="#edc690" fill-rule="evenodd"/>
      <path id="Trazado_87" data-name="Trazado 87" d="M586.174,580.5l-8.134,5.808a1.078,1.078,0,0,0-.144,1.633l.654.667a1.069,1.069,0,0,0,.75.326,7.751,7.751,0,0,0,2.872-.789l7.912-4.038a1.16,1.16,0,0,0,.136-.083l7.79-5.561a1.92,1.92,0,1,0-1.967-3.242l-8,4.071-10.716-17.67-1.62,1.62Z" transform="translate(-483.917 -454.876)" fill="#edc690"/>
      <path id="Trazado_88" data-name="Trazado 88" d="M482.052,579.294l-8-4.071a1.92,1.92,0,1,0-1.967,3.242l7.79,5.561a1.18,1.18,0,0,0,.136.083l7.912,4.038a7.75,7.75,0,0,0,2.872.789,1.067,1.067,0,0,0,.75-.326l.654-.667a1.079,1.079,0,0,0-.143-1.633l-8.135-5.808,10.47-17.259-1.62-1.62Z" transform="translate(-438.507 -454.876)" fill="#edc690"/>
      <path id="Trazado_89" data-name="Trazado 89" d="M610.283,376.1l-4.6-2.788a.76.76,0,0,0-1.045.256l-.425.7a.76.76,0,0,0,.256,1.044l.179.108L582.8,411.438h2.615l8.842-14.576,3.7-.908,10.893-17.986.221.134a.76.76,0,0,0,1.044-.257l.426-.7A.76.76,0,0,0,610.283,376.1Z" transform="translate(-486.994 -373.2)" fill="#edc690"/>
      <path id="Trazado_90" data-name="Trazado 90" d="M462.081,375.421l.179-.108a.76.76,0,0,0,.257-1.044l-.426-.7a.76.76,0,0,0-1.045-.256l-4.6,2.788a.76.76,0,0,0-.257,1.044l.425.7a.76.76,0,0,0,1.044.257l.221-.134,10.893,17.986,3.7.908,8.842,14.576h2.615Z" transform="translate(-432.062 -373.2)" fill="#edc690"/>
    </g>
  </g>
</svg>
